{"title":"The.Nut.Job.2014.BRRip.XviD-TODE","uid":9890113,"size":736649996,"categoryP":"video","categoryS":"movies","magnet":"?xt=urn:btih:b5b58b1f9f3596788cc43e40d358f768e02719c3&amp;dn=The.Nut.Job.2014.BRRip.XviD-TODE&amp;tr=udp%3A%2F%2Ftracker.openbittorrent.com%3A80&amp;tr=udp%3A%2F%2Fopen.demonii.com%3A1337&amp;tr=udp%3A%2F%2Ftracker.coppersurfer.tk%3A6969&amp;tr=udp%3A%2F%2Fexodus.desync.com%3A6969","seeders":3,"leechers":0,"uploader":"xxxlavalxxx","files":-1,"time":1396633045,"description":" &lt;a href=&quot;\nhttp://www.imdb.com/title/tt1821658/&quot; rel=&quot;nofollow&quot; target=&quot;_NEW&quot;&gt;\nhttp://www.imdb.com/title/tt1821658/&lt;/a&gt;\n\n\nAn incorrigibly self-serving exiled squirrel finds himself helping his former park brethren raid a nut store to survive, that is also the front for a human gang's bank robbery.\n\nDirector: Peter Lepeniotis\nWriters: Lorne Cameron (screenplay), Peter Lepeniotis\nStars: Will Arnett, Brendan Fraser, Liam Neeson \nGenres: Animation | Adventure | Comedy | Family\nCountry: Canada | South Korea | USA\nLanguage: English\n\n\nThanks: PHD\n\n\nFormat                                   : AVI\nFormat/Info                              : Audio Video Interleave\nFile size                                : 703 MiB\nDuration                                 : 1h 25mn\nOverall bit rate                         : 1 143 Kbps\nWriting library                          : VirtualDub build 32842/release\n\nVideo\nID                                       : 0\nFormat                                   : MPEG-4 Visual\nFormat profile                           : Advanced Simple@L5\nFormat settings, BVOP                    : 2\nFormat settings, QPel                    : No\nFormat settings, GMC                     : No warppoints\nFormat settings, Matrix                  : Default (H.263)\nMuxing mode                              : Packed bitstream\nCodec ID                                 : XVID\nCodec ID/Hint                            : XviD\nDuration                                 : 1h 25mn\nBit rate                                 : 1 006 Kbps\nWidth                                    : 640 pixels\nHeight                                   : 346 pixels\nDisplay aspect ratio                     : 1.85:1\nFrame rate                               : 23.976 fps\nColor space                              : YUV\nChroma subsampling                       : 4:2:0\nBit depth                                : 8 bits\nScan type                                : Progressive\nCompression mode                         : Lossy\nBits/(Pixel*Frame)                       : 0.189\nStream size                              : 618 MiB (88%)\nWriting library                          : XviD 64\n\nAudio\nID                                       : 1\nFormat                                   : MPEG Audio\nFormat version                           : Version 1\nFormat profile                           : Layer 3\nMode                                     : Joint stereo\nCodec ID                                 : 55\nCodec ID/Hint                            : MP3\nDuration                                 : 1h 25mn\nBit rate mode                            : Constant\nBit rate                                 : 128 Kbps\nChannel(s)                               : 2 channels\nSampling rate                            : 48.0 KHz\nCompression mode                         : Lossy\nStream size                              : 78.7 MiB (11%)\nAlignment                                : Split accross interleaves\nInterleave, duration                     : 42 ms (1.00 video frame)\nInterleave, preload duration             : 500 ms\n\n\n\nscreens\n &lt;a href=&quot;\nhttp://i.imgur.com/QOJM0Er.jpg&quot; rel=&quot;nofollow&quot; target=&quot;_NEW&quot;&gt;\nhttp://i.imgur.com/QOJM0Er.jpg&lt;/a&gt; &lt;a href=&quot;\nhttp://i.imgur.com/Uc6gzG5.jpg&quot; rel=&quot;nofollow&quot; target=&quot;_NEW&quot;&gt;\nhttp://i.imgur.com/Uc6gzG5.jpg&lt;/a&gt; &lt;a href=&quot;\nhttp://i.imgur.com/mXVrtd9.jpg&quot; rel=&quot;nofollow&quot; target=&quot;_NEW&quot;&gt;\nhttp://i.imgur.com/mXVrtd9.jpg&lt;/a&gt; &lt;a href=&quot;\nhttp://i.imgur.com/2ADG5tb.jpg&quot; rel=&quot;nofollow&quot; target=&quot;_NEW&quot;&gt;\nhttp://i.imgur.com/2ADG5tb.jpg&lt;/a&gt; &lt;a href=&quot;\nhttp://i.imgur.com/90WhIV5.jpg&quot; rel=&quot;nofollow&quot; target=&quot;_NEW&quot;&gt;\nhttp://i.imgur.com/90WhIV5.jpg&lt;/a&gt; &lt;a href=&quot;\nhttp://i.imgur.com/qOPAgEE.jpg&quot; rel=&quot;nofollow&quot; target=&quot;_NEW&quot;&gt;\nhttp://i.imgur.com/qOPAgEE.jpg&lt;/a&gt; &lt;a href=&quot;\nhttp://i.imgur.com/CWyiJVd.jpg&quot; rel=&quot;nofollow&quot; target=&quot;_NEW&quot;&gt;\nhttp://i.imgur.com/CWyiJVd.jpg&lt;/a&gt; &lt;a href=&quot;\nhttp://i.imgur.com/bTCbZxO.jpg&quot; rel=&quot;nofollow&quot; target=&quot;_NEW&quot;&gt;\nhttp://i.imgur.com/bTCbZxO.jpg&lt;/a&gt;","torrent":{"xt":"urn:btih:b5b58b1f9f3596788cc43e40d358f768e02719c3","amp;dn":"The.Nut.Job.2014.BRRip.XviD-TODE","amp;tr":["udp%3A%2F%2Ftracker.openbittorrent.com%3A80","udp%3A%2F%2Fopen.demonii.com%3A1337","udp%3A%2F%2Ftracker.coppersurfer.tk%3A6969","udp%3A%2F%2Fexodus.desync.com%3A6969"],"infoHash":"b5b58b1f9f3596788cc43e40d358f768e02719c3","infoHashBuffer":{"type":"Buffer","data":[181,181,139,31,159,53,150,120,140,196,62,64,211,88,247,104,224,39,25,195]},"announce":[],"urlList":[]}}